REM DIRINDEX 1
REM DIRNAME cjc069
TITLE ""
FILE "Disk2Track38.mp3" MP3
  TRACK 01 AUDIO
    TITLE "1:cjc069_0696"
    INDEX 01 00:00:00
  TRACK 02 AUDIO
    TITLE "1:cjc069_0697"
    INDEX 01 00:07:27
  TRACK 03 AUDIO
    TITLE "1:cjc069_0698"
    INDEX 01 00:15:42
  TRACK 04 AUDIO
    TITLE "1:cjc069_0699"
    INDEX 01 00:27:22
  TRACK 05 AUDIO
    TITLE "1:cjc069_0700"
    INDEX 01 00:35:17
  TRACK 06 AUDIO
    TITLE "0:"
    INDEX 01 00:51:22
